<svg id="Layer_1" data-name="Layer 1" xmlns="http://www.w3.org/2000/svg" xmlns:xlink="http://www.w3.org/1999/xlink" viewBox="0 0 259.3 298.93"><defs><style>.cls-1{fill:url(#linear-gradient);}.cls-2{fill:#fcee32;}</style><linearGradient id="linear-gradient" x1="204.09" y1="345.91" x2="301.21" y2="164.46" gradientUnits="userSpaceOnUse"><stop offset="0" stop-color="#f3eb4b"/><stop offset="1" stop-color="#e9cb1b"/></linearGradient></defs><path class="cls-1" d="M254.77,106.53h0c0,66.85-54.19,144.7-121,144.7h0c66.85,0,121,87.39,121,154.24h0c0-66.85,54.19-154.24,121-154.24h0C309,251.23,254.77,173.38,254.77,106.53Z" transform="translate(-126.35 -106.53)"/><path class="cls-2" d="M357.18,317.31h0c0,15.73-12.75,34-28.48,34h0c15.73,0,28.48,20.56,28.48,36.29h0c0-15.73,12.75-36.29,28.47-36.29h0C369.93,351.35,357.18,333,357.18,317.31Z" transform="translate(-126.35 -106.53)"/><path class="cls-2" d="M151.87,128h0c0,14.1-11.43,30.51-25.52,30.51h0c14.09,0,25.52,18.43,25.52,32.52h0c0-14.09,11.42-32.52,25.52-32.52h0C163.29,158.54,151.87,142.13,151.87,128Z" transform="translate(-126.35 -106.53)"/></svg>